<svg xmlns="http://www.w3.org/2000/svg" viewBox="0 0 106 106"><defs><style>.cls-1{fill:#485761;}.cls-2{fill:#fff;}.cls-3{fill:#43d490;}.cls-4{fill:#ff7575;}.cls-5{fill:#70cbf6;}.cls-6{opacity:0.1;}.cls-7{fill:#171c1f;}</style></defs><title>game-controller</title><g id="Game-Controller"><g id="Fill"><path class="cls-1" d="M82,51H24A22,22,0,1,0,42.44,85H63.56A22,22,0,1,0,82,51Z"/></g><g id="White"><path class="cls-2" d="M31,70H27V66a3,3,0,1,0-6,0v4H17a3,3,0,1,0,0,6h4v4a3,3,0,0,0,6,0V76h4a3,3,0,1,0,0-6Z"/></g><g id="Green"><circle class="cls-3" cx="77" cy="79" r="4"/></g><g id="Red"><circle class="cls-4" cx="89" cy="67" r="4"/></g><g id="Blue"><path class="cls-5" d="M48,69H44a2,2,0,1,0,0,4h4a2,2,0,1,0,0-4Zm14,0H58a2,2,0,1,0,0,4h4a2,2,0,1,0,0-4Z"/></g><g id="Shadows" class="cls-6"><path d="M77,88a5,5,0,0,0,5-5V79a5,5,0,1,1-10,0v4A5,5,0,0,0,77,88ZM58,78h4a3,3,0,0,0,3-3V71a3,3,0,0,1-3,3H58a3,3,0,0,1-3-3v4A3,3,0,0,0,58,78Zm31-2a5,5,0,0,0,5-5V67a5,5,0,0,1-10,0v4A5,5,0,0,0,89,76ZM17,81h3v3a4,4,0,1,0,8,0V81h3a4,4,0,0,0,4-4V73a4,4,0,0,1-4,4H28v3a4,4,0,0,1-8,0V77H17a4,4,0,0,1-4-4h0v4h0A4,4,0,0,0,17,81Zm84.95-9A20,20,0,0,1,65.76,82.66L64.56,81H41.44l-1.2,1.66A20,20,0,0,1,4.05,72c0,.33-.05.66-.05,1A20,20,0,0,0,40.24,84.66L41.44,83H64.56l1.2,1.66A20,20,0,0,0,102,73C102,72.66,102,72.33,101.95,72ZM44,78h4a3,3,0,0,0,3-3V71a3,3,0,0,1-3,3H44a3,3,0,0,1-3-3v4A3,3,0,0,0,44,78Z"/></g><g id="Inner_Lines" data-name="Inner Lines"><path class="cls-7" d="M31,69H28V66a4,4,0,0,0-8,0v3H17a4,4,0,1,0,0,8h3v3a4,4,0,0,0,8,0V77h3a4,4,0,1,0,0-8Zm0,6H26v5a2,2,0,0,1-4,0V75H17a2,2,0,1,1,0-4h5V66a2,2,0,0,1,4,0v5h5a2,2,0,1,1,0,4Zm17-7H44a3,3,0,0,0,0,6h4a3,3,0,0,0,0-6Zm0,4H44a1,1,0,0,1,0-2h4a1,1,0,0,1,0,2Zm29,2a5,5,0,1,0,5,5A5,5,0,0,0,77,74Zm0,8a3,3,0,1,1,3-3A3,3,0,0,1,77,82ZM89,62a5,5,0,1,0,5,5A5,5,0,0,0,89,62Zm0,8a3,3,0,1,1,3-3A3,3,0,0,1,89,70ZM62,68H58a3,3,0,0,0,0,6h4a3,3,0,0,0,0-6Zm0,4H58a1,1,0,0,1,0-2h4a1,1,0,0,1,0,2Z"/></g><g id="Outline"><path class="cls-7" d="M82,49H54c-5.62-7.58-7.91-13.32.42-22.7,3.3-3.72,4.84-7.35,4.57-10.8a9,9,0,0,0-3-6.06,2,2,0,0,0-2.77.28,2,2,0,0,0,.24,2.81A5.06,5.06,0,0,1,55,15.9c.15,2.26-1.09,4.94-3.57,7.74C42.26,34,44.2,41.55,49.14,49H24A24,24,0,1,0,43.49,87h19A24,24,0,1,0,82,49Zm0,44a20.07,20.07,0,0,1-16.24-8.34L64.56,83H41.44l-1.2,1.66A20,20,0,1,1,24,53H82a20,20,0,0,1,0,40Z"/></g></g></svg>